<svg xmlns="http://www.w3.org/2000/svg" version="1.1" xmlns:xlink="http://www.w3.org/1999/xlink" xmlns:svgjs="http://svgjs.com/svgjs" width="1440" height="560" preserveAspectRatio="none" viewBox="0 0 1440 560"><g mask="url(&quot;#SvgjsMask1154&quot;)" fill="none"><rect width="1440" height="560" x="0" y="0" fill="url(#SvgjsLinearGradient1155)"></rect><path d="M1440 0L1309.2 0L1440 182.01z" fill="rgba(255, 255, 255, .1)"></path><path d="M1309.2 0L1440 182.01L1440 236.85L995.49 0z" fill="rgba(255, 255, 255, .075)"></path><path d="M995.49 0L1440 236.85L1440 306.03L522.13 0z" fill="rgba(255, 255, 255, .05)"></path><path d="M522.13 0L1440 306.03L1440 461.81999999999994L276.19 0z" fill="rgba(255, 255, 255, .025)"></path><path d="M0 560L315.24 560L0 485.23z" fill="rgba(0, 0, 0, .1)"></path><path d="M0 485.23L315.24 560L688.06 560L0 252.36z" fill="rgba(0, 0, 0, .075)"></path><path d="M0 252.36L688.06 560L713.52 560L0 140.16000000000003z" fill="rgba(0, 0, 0, .05)"></path><path d="M0 140.16000000000003L713.52 560L1050.46 560L0 77.72000000000003z" fill="rgba(0, 0, 0, .025)"></path></g><defs><mask id="SvgjsMask1154"><rect width="1440" height="560" fill="#ffffff"></rect></mask><linearGradient x1="15.28%" y1="139.29%" x2="84.72%" y2="-39.29%" gradientUnits="userSpaceOnUse" id="SvgjsLinearGradient1155"><stop stop-color="#0e2a47" offset="0"></stop><stop stop-color="rgba(22, 112, 230, 1)" offset="0.78"></stop><stop stop-color="#00459e" offset="1"></stop></linearGradient></defs></svg>